# xmcd
#
# Track frame offsets:
#	150
#	19126
#	47334
#	66135
#	89470
#	113687
#	138388
#	164631
#	197989
#	224969
#
# Disc length: 3450 seconds
#
# Revision: 1
# Processed by: cddbd v1.5.2PL0 Copyright (c) Steve Scherf et al.
# Submitted via: audiograbber 1.83.01
#
DISCID=960d780a
DTITLE=Vesely and Krajic - Vesely and Krajic
DYEAR=2001
DGENRE=
TTITLE0=Red Top
TTITLE1=Summertime
TTITLE2=Satin Doll
TTITLE3=God Bless The Child
TTITLE4=Don't Get Around Much Anymore
TTITLE5=Georgia On My Mind
TTITLE6=Good Morning Little School Girl
TTITLE7=Sometimes We Cry
TTITLE8=Moondance
TTITLE9=Little Wing
EXTD=
EXTT0=
EXTT1=
EXTT2=
EXTT3=
EXTT4=
EXTT5=
EXTT6=
EXTT7=
EXTT8=
EXTT9=
PLAYORDER=
